<svg height="16" viewBox="0 0 16 16" width="16" xmlns="http://www.w3.org/2000/svg"><path d="m0 0h16v16h-16z" fill="none"/><path d="m14.815 0h-13.635c-.65 0-1.18.517-1.18 1.153v13.694c0 .638.53 1.153 1.18 1.153h13.636c.651 0 1.184-.515 1.184-1.153v-13.694c0-.636-.533-1.153-1.185-1.153zm-10.069 13.634h-2.375v-7.635h2.376v7.635zm-1.187-8.679c-.762 0-1.377-.617-1.377-1.377 0-.759.615-1.376 1.377-1.376.759 0 1.376.617 1.376 1.376 0 .761-.616 1.377-1.376 1.377zm10.074 8.679h-2.371v-3.712c0-.886-.017-2.025-1.233-2.025-1.235 0-1.423.964-1.423 1.96v3.778h-2.371v-7.636h2.274v1.043h.033c.317-.6 1.091-1.233 2.245-1.233 2.401 0 2.845 1.581 2.845 3.638v4.187z"/></svg>